<mxfile host="Electron" modified="2024-03-04T00:19:27.037Z" agent="Mozilla/5.0 (Windows NT 10.0; Win64; x64) AppleWebKit/537.36 (KHTML, like Gecko) draw.io/23.0.2 Chrome/120.0.6099.109 Electron/28.1.0 Safari/537.36" etag="8Ls4gotVnVekhXFeB6fi" version="23.0.2" type="device" pages="2">
  <diagram name="build" id="UqRmnIJvj32oJmDdNIwl">
    <mxGraphModel dx="1559" dy="1041" grid="1" gridSize="10" guides="1" tooltips="1" connect="1" arrows="1" fold="1" page="1" pageScale="1" pageWidth="850" pageHeight="1100" math="0" shadow="0">
      <root>
        <mxCell id="0" />
        <mxCell id="1" parent="0" />
        <mxCell id="_dSc7LDid6bN-g3FqYo1-19" value="" style="rounded=0;whiteSpace=wrap;html=1;" vertex="1" parent="1">
          <mxGeometry x="220" y="570" width="120" height="120" as="geometry" />
        </mxCell>
        <mxCell id="_dSc7LDid6bN-g3FqYo1-8" style="edgeStyle=none;rounded=0;orthogonalLoop=1;jettySize=auto;html=1;exitX=0.5;exitY=1;exitDx=0;exitDy=0;exitPerimeter=0;entryX=0.5;entryY=0;entryDx=0;entryDy=0;" edge="1" parent="1" source="_dSc7LDid6bN-g3FqYo1-2" target="_dSc7LDid6bN-g3FqYo1-3">
          <mxGeometry relative="1" as="geometry" />
        </mxCell>
        <mxCell id="_dSc7LDid6bN-g3FqYo1-2" value="source code&lt;br&gt;&lt;br&gt;main.cpp" style="whiteSpace=wrap;html=1;shape=mxgraph.basic.document" vertex="1" parent="1">
          <mxGeometry x="432.5" y="90" width="60" height="80" as="geometry" />
        </mxCell>
        <mxCell id="_dSc7LDid6bN-g3FqYo1-3" value="Pre-processor" style="rounded=0;whiteSpace=wrap;html=1;" vertex="1" parent="1">
          <mxGeometry x="405" y="220" width="115" height="40" as="geometry" />
        </mxCell>
        <mxCell id="_dSc7LDid6bN-g3FqYo1-4" value="Compiler" style="rounded=0;whiteSpace=wrap;html=1;" vertex="1" parent="1">
          <mxGeometry x="405.01" y="380" width="115" height="40" as="geometry" />
        </mxCell>
        <mxCell id="_dSc7LDid6bN-g3FqYo1-5" value="Assembler" style="rounded=0;whiteSpace=wrap;html=1;" vertex="1" parent="1">
          <mxGeometry x="405" y="540" width="115" height="40" as="geometry" />
        </mxCell>
        <mxCell id="_dSc7LDid6bN-g3FqYo1-6" value="Linker" style="rounded=0;whiteSpace=wrap;html=1;" vertex="1" parent="1">
          <mxGeometry x="405.01" y="700" width="115" height="40" as="geometry" />
        </mxCell>
        <mxCell id="_dSc7LDid6bN-g3FqYo1-10" style="edgeStyle=none;rounded=0;orthogonalLoop=1;jettySize=auto;html=1;exitX=0.5;exitY=1;exitDx=0;exitDy=0;exitPerimeter=0;entryX=0.5;entryY=0;entryDx=0;entryDy=0;" edge="1" parent="1" source="_dSc7LDid6bN-g3FqYo1-7" target="_dSc7LDid6bN-g3FqYo1-4">
          <mxGeometry relative="1" as="geometry" />
        </mxCell>
        <mxCell id="_dSc7LDid6bN-g3FqYo1-7" value="main.i" style="whiteSpace=wrap;html=1;shape=mxgraph.basic.document" vertex="1" parent="1">
          <mxGeometry x="439.16999999999996" y="290" width="46.67" height="60" as="geometry" />
        </mxCell>
        <mxCell id="_dSc7LDid6bN-g3FqYo1-9" style="edgeStyle=none;rounded=0;orthogonalLoop=1;jettySize=auto;html=1;exitX=0.5;exitY=1;exitDx=0;exitDy=0;entryX=0.5;entryY=0;entryDx=0;entryDy=0;entryPerimeter=0;" edge="1" parent="1" source="_dSc7LDid6bN-g3FqYo1-3" target="_dSc7LDid6bN-g3FqYo1-7">
          <mxGeometry relative="1" as="geometry" />
        </mxCell>
        <mxCell id="_dSc7LDid6bN-g3FqYo1-12" style="edgeStyle=none;rounded=0;orthogonalLoop=1;jettySize=auto;html=1;exitX=0.5;exitY=1;exitDx=0;exitDy=0;exitPerimeter=0;entryX=0.5;entryY=0;entryDx=0;entryDy=0;" edge="1" parent="1" source="_dSc7LDid6bN-g3FqYo1-11" target="_dSc7LDid6bN-g3FqYo1-5">
          <mxGeometry relative="1" as="geometry" />
        </mxCell>
        <mxCell id="_dSc7LDid6bN-g3FqYo1-11" value="main.s" style="whiteSpace=wrap;html=1;shape=mxgraph.basic.document" vertex="1" parent="1">
          <mxGeometry x="439.16999999999996" y="450" width="46.67" height="60" as="geometry" />
        </mxCell>
        <mxCell id="_dSc7LDid6bN-g3FqYo1-13" style="edgeStyle=none;rounded=0;orthogonalLoop=1;jettySize=auto;html=1;exitX=0.5;exitY=1;exitDx=0;exitDy=0;entryX=0.5;entryY=0;entryDx=0;entryDy=0;entryPerimeter=0;" edge="1" parent="1" source="_dSc7LDid6bN-g3FqYo1-4" target="_dSc7LDid6bN-g3FqYo1-11">
          <mxGeometry relative="1" as="geometry" />
        </mxCell>
        <mxCell id="_dSc7LDid6bN-g3FqYo1-24" style="edgeStyle=none;rounded=0;orthogonalLoop=1;jettySize=auto;html=1;exitX=0.5;exitY=1;exitDx=0;exitDy=0;exitPerimeter=0;entryX=0.5;entryY=0;entryDx=0;entryDy=0;" edge="1" parent="1" source="_dSc7LDid6bN-g3FqYo1-14" target="_dSc7LDid6bN-g3FqYo1-6">
          <mxGeometry relative="1" as="geometry" />
        </mxCell>
        <mxCell id="_dSc7LDid6bN-g3FqYo1-14" value="main.o" style="whiteSpace=wrap;html=1;shape=mxgraph.basic.document" vertex="1" parent="1">
          <mxGeometry x="439.15999999999997" y="610" width="46.67" height="60" as="geometry" />
        </mxCell>
        <mxCell id="_dSc7LDid6bN-g3FqYo1-18" value="" style="group" vertex="1" connectable="0" parent="1">
          <mxGeometry x="246.67000000000002" y="580" width="66.67000000000002" height="80" as="geometry" />
        </mxCell>
        <mxCell id="_dSc7LDid6bN-g3FqYo1-15" value="" style="whiteSpace=wrap;html=1;shape=mxgraph.basic.document" vertex="1" parent="_dSc7LDid6bN-g3FqYo1-18">
          <mxGeometry width="46.67" height="60" as="geometry" />
        </mxCell>
        <mxCell id="_dSc7LDid6bN-g3FqYo1-16" value="" style="whiteSpace=wrap;html=1;shape=mxgraph.basic.document" vertex="1" parent="_dSc7LDid6bN-g3FqYo1-18">
          <mxGeometry x="10" y="10" width="46.67" height="60" as="geometry" />
        </mxCell>
        <mxCell id="_dSc7LDid6bN-g3FqYo1-17" value="" style="whiteSpace=wrap;html=1;shape=mxgraph.basic.document" vertex="1" parent="_dSc7LDid6bN-g3FqYo1-18">
          <mxGeometry x="20" y="20" width="46.67" height="60" as="geometry" />
        </mxCell>
        <mxCell id="_dSc7LDid6bN-g3FqYo1-22" style="edgeStyle=orthogonalEdgeStyle;rounded=0;orthogonalLoop=1;jettySize=auto;html=1;exitX=0.5;exitY=1;exitDx=0;exitDy=0;entryX=0;entryY=0.5;entryDx=0;entryDy=0;" edge="1" parent="1" source="_dSc7LDid6bN-g3FqYo1-20" target="_dSc7LDid6bN-g3FqYo1-6">
          <mxGeometry relative="1" as="geometry" />
        </mxCell>
        <mxCell id="_dSc7LDid6bN-g3FqYo1-20" value="Libraries" style="text;html=1;strokeColor=none;fillColor=none;align=center;verticalAlign=middle;whiteSpace=wrap;rounded=0;" vertex="1" parent="1">
          <mxGeometry x="250" y="660" width="60" height="30" as="geometry" />
        </mxCell>
        <mxCell id="_dSc7LDid6bN-g3FqYo1-23" style="edgeStyle=none;rounded=0;orthogonalLoop=1;jettySize=auto;html=1;exitX=0.5;exitY=1;exitDx=0;exitDy=0;entryX=0.5;entryY=0;entryDx=0;entryDy=0;entryPerimeter=0;" edge="1" parent="1" source="_dSc7LDid6bN-g3FqYo1-5" target="_dSc7LDid6bN-g3FqYo1-14">
          <mxGeometry relative="1" as="geometry" />
        </mxCell>
        <mxCell id="_dSc7LDid6bN-g3FqYo1-25" value="binary&lt;br&gt;(exec)" style="whiteSpace=wrap;html=1;shape=mxgraph.basic.document" vertex="1" parent="1">
          <mxGeometry x="432.49" y="780" width="60" height="80" as="geometry" />
        </mxCell>
        <mxCell id="_dSc7LDid6bN-g3FqYo1-26" style="edgeStyle=none;rounded=0;orthogonalLoop=1;jettySize=auto;html=1;exitX=0.5;exitY=1;exitDx=0;exitDy=0;entryX=0.5;entryY=0;entryDx=0;entryDy=0;entryPerimeter=0;" edge="1" parent="1" source="_dSc7LDid6bN-g3FqYo1-6" target="_dSc7LDid6bN-g3FqYo1-25">
          <mxGeometry relative="1" as="geometry" />
        </mxCell>
      </root>
    </mxGraphModel>
  </diagram>
  <diagram id="iGpjcr6YpCRMuuM20xSb" name="cmake">
    <mxGraphModel dx="980" dy="654" grid="1" gridSize="10" guides="1" tooltips="1" connect="1" arrows="1" fold="1" page="1" pageScale="1" pageWidth="850" pageHeight="1100" math="0" shadow="0">
      <root>
        <mxCell id="0" />
        <mxCell id="1" parent="0" />
        <mxCell id="lYe3i1QetRt5YN0rgRbm-2" value="CMake" style="rounded=0;whiteSpace=wrap;html=1;" vertex="1" parent="1">
          <mxGeometry x="220" y="210" width="120" height="40" as="geometry" />
        </mxCell>
        <mxCell id="ZraxGCMc3j-KjYrMxSlr-13" style="edgeStyle=none;rounded=0;orthogonalLoop=1;jettySize=auto;html=1;exitX=1;exitY=0.5;exitDx=0;exitDy=0;entryX=0;entryY=0.5;entryDx=0;entryDy=0;" edge="1" parent="1" source="ZraxGCMc3j-KjYrMxSlr-1" target="lYe3i1QetRt5YN0rgRbm-2">
          <mxGeometry relative="1" as="geometry" />
        </mxCell>
        <mxCell id="ZraxGCMc3j-KjYrMxSlr-1" value="" style="rounded=0;whiteSpace=wrap;html=1;" vertex="1" parent="1">
          <mxGeometry x="40" y="90" width="120" height="120" as="geometry" />
        </mxCell>
        <mxCell id="ZraxGCMc3j-KjYrMxSlr-2" value="" style="group" vertex="1" connectable="0" parent="1">
          <mxGeometry x="66.67000000000002" y="100" width="66.67000000000002" height="80" as="geometry" />
        </mxCell>
        <mxCell id="ZraxGCMc3j-KjYrMxSlr-3" value="" style="whiteSpace=wrap;html=1;shape=mxgraph.basic.document" vertex="1" parent="ZraxGCMc3j-KjYrMxSlr-2">
          <mxGeometry width="46.67" height="60" as="geometry" />
        </mxCell>
        <mxCell id="ZraxGCMc3j-KjYrMxSlr-4" value="" style="whiteSpace=wrap;html=1;shape=mxgraph.basic.document" vertex="1" parent="ZraxGCMc3j-KjYrMxSlr-2">
          <mxGeometry x="10" y="10" width="46.67" height="60" as="geometry" />
        </mxCell>
        <mxCell id="ZraxGCMc3j-KjYrMxSlr-5" value="" style="whiteSpace=wrap;html=1;shape=mxgraph.basic.document" vertex="1" parent="ZraxGCMc3j-KjYrMxSlr-2">
          <mxGeometry x="20" y="20" width="46.67" height="60" as="geometry" />
        </mxCell>
        <mxCell id="ZraxGCMc3j-KjYrMxSlr-6" value="source code" style="text;html=1;strokeColor=none;fillColor=none;align=center;verticalAlign=middle;whiteSpace=wrap;rounded=0;" vertex="1" parent="1">
          <mxGeometry x="60" y="180" width="80" height="30" as="geometry" />
        </mxCell>
        <mxCell id="ZraxGCMc3j-KjYrMxSlr-14" style="edgeStyle=none;rounded=0;orthogonalLoop=1;jettySize=auto;html=1;exitX=1;exitY=0.5;exitDx=0;exitDy=0;entryX=0;entryY=0.5;entryDx=0;entryDy=0;" edge="1" parent="1" source="ZraxGCMc3j-KjYrMxSlr-7" target="lYe3i1QetRt5YN0rgRbm-2">
          <mxGeometry relative="1" as="geometry" />
        </mxCell>
        <mxCell id="ZraxGCMc3j-KjYrMxSlr-7" value="" style="rounded=0;whiteSpace=wrap;html=1;" vertex="1" parent="1">
          <mxGeometry x="40" y="250" width="120" height="120" as="geometry" />
        </mxCell>
        <mxCell id="ZraxGCMc3j-KjYrMxSlr-8" value="" style="group" vertex="1" connectable="0" parent="1">
          <mxGeometry x="66.67000000000002" y="260" width="66.67000000000002" height="80" as="geometry" />
        </mxCell>
        <mxCell id="ZraxGCMc3j-KjYrMxSlr-9" value="" style="whiteSpace=wrap;html=1;shape=mxgraph.basic.document" vertex="1" parent="ZraxGCMc3j-KjYrMxSlr-8">
          <mxGeometry width="46.67" height="60" as="geometry" />
        </mxCell>
        <mxCell id="ZraxGCMc3j-KjYrMxSlr-10" value="" style="whiteSpace=wrap;html=1;shape=mxgraph.basic.document" vertex="1" parent="ZraxGCMc3j-KjYrMxSlr-8">
          <mxGeometry x="10" y="10" width="46.67" height="60" as="geometry" />
        </mxCell>
        <mxCell id="ZraxGCMc3j-KjYrMxSlr-11" value="" style="whiteSpace=wrap;html=1;shape=mxgraph.basic.document" vertex="1" parent="ZraxGCMc3j-KjYrMxSlr-8">
          <mxGeometry x="20" y="20" width="46.67" height="60" as="geometry" />
        </mxCell>
        <mxCell id="ZraxGCMc3j-KjYrMxSlr-12" value="libraries" style="text;html=1;strokeColor=none;fillColor=none;align=center;verticalAlign=middle;whiteSpace=wrap;rounded=0;" vertex="1" parent="1">
          <mxGeometry x="60" y="340" width="80" height="30" as="geometry" />
        </mxCell>
        <mxCell id="5LEw7u3iUttWWvEIlUeh-7" style="edgeStyle=none;rounded=0;orthogonalLoop=1;jettySize=auto;html=1;exitX=1;exitY=0.5;exitDx=0;exitDy=0;exitPerimeter=0;entryX=0;entryY=0.5;entryDx=0;entryDy=0;" edge="1" parent="1" source="5LEw7u3iUttWWvEIlUeh-1" target="5LEw7u3iUttWWvEIlUeh-6">
          <mxGeometry relative="1" as="geometry" />
        </mxCell>
        <mxCell id="5LEw7u3iUttWWvEIlUeh-1" value="build script" style="whiteSpace=wrap;html=1;shape=mxgraph.basic.document" vertex="1" parent="1">
          <mxGeometry x="398" y="190" width="55" height="80" as="geometry" />
        </mxCell>
        <mxCell id="5LEw7u3iUttWWvEIlUeh-2" style="edgeStyle=none;rounded=0;orthogonalLoop=1;jettySize=auto;html=1;exitX=1;exitY=0.5;exitDx=0;exitDy=0;entryX=0;entryY=0.5;entryDx=0;entryDy=0;entryPerimeter=0;" edge="1" parent="1" source="lYe3i1QetRt5YN0rgRbm-2" target="5LEw7u3iUttWWvEIlUeh-1">
          <mxGeometry relative="1" as="geometry" />
        </mxCell>
        <mxCell id="5LEw7u3iUttWWvEIlUeh-4" value="CMake generates build scripts for various build tools, such as `make`, `ninja`, Apple&#39;s Xcode, and Microsoft Visual Studio." style="text;whiteSpace=wrap;" vertex="1" parent="1">
          <mxGeometry x="460" y="280" width="200" height="70" as="geometry" />
        </mxCell>
        <mxCell id="5LEw7u3iUttWWvEIlUeh-6" value="build tool" style="rounded=0;whiteSpace=wrap;html=1;" vertex="1" parent="1">
          <mxGeometry x="500" y="210" width="120" height="40" as="geometry" />
        </mxCell>
        <mxCell id="5LEw7u3iUttWWvEIlUeh-8" value="binary exec" style="whiteSpace=wrap;html=1;shape=mxgraph.basic.document" vertex="1" parent="1">
          <mxGeometry x="660" y="190" width="55" height="80" as="geometry" />
        </mxCell>
        <mxCell id="5LEw7u3iUttWWvEIlUeh-9" style="edgeStyle=none;rounded=0;orthogonalLoop=1;jettySize=auto;html=1;exitX=1;exitY=0.5;exitDx=0;exitDy=0;entryX=0;entryY=0.5;entryDx=0;entryDy=0;entryPerimeter=0;" edge="1" parent="1" source="5LEw7u3iUttWWvEIlUeh-6" target="5LEw7u3iUttWWvEIlUeh-8">
          <mxGeometry relative="1" as="geometry" />
        </mxCell>
      </root>
    </mxGraphModel>
  </diagram>
</mxfile>
